<svg class="icon" style="width: 1em;height: 1em;vertical-align: middle;fill: currentColor;overflow: hidden;" viewBox="0 0 1024 1024" version="1.1" xmlns="http://www.w3.org/2000/svg" p-id="5135"><path d="M597.201568 204.337807c-10.581779-44.638081-48.530229-86.11379-96.087421-86.11379-47.557192 0-88.303124 41.47571-98.763274 86.11379l-63.977194 0 0 194.850695 322.805084 0L661.178762 204.337807 597.201568 204.337807zM618.000238 355.645088 379.484499 355.645088l-0.729778-109.223423 66.044898 0 0-26.880152c0-30.164153 26.393633-58.62549 56.314527-58.62549 29.920893 0 52.300748 28.582967 52.300748 58.62549l0 26.880152 64.706972 0L618.121867 355.645088z" fill="#262435" p-id="5136"></path><path d="M730.021143 225.622996l-112.020905 0 1.337926 130.022093L379.484499 355.645088 379.484499 225.622996l-88.911272 0c-69.815418 0-126.738092 53.881934-126.738092 124.06224L163.835135 791.809003c0 70.301936 56.801045 127.46787 126.738092 127.46787l439.569545 0c69.815418 0 126.738092-57.165934 126.738092-127.46787L856.880865 349.685236C856.759235 279.3833 799.95819 225.622996 730.021143 225.622996zM812.242784 791.809003c0 44.394821-37.94845 84.046086-82.221642 84.046086L290.573227 875.85509c-44.151562 0-85.627272-39.529635-85.627272-84.046086L204.945956 349.685236c0-44.394821 41.35408-80.640456 85.627272-80.640456l47.800451 0 0 130.022093 322.805084 0L661.178762 269.04478l68.84238 0c44.273192 0 82.221642 36.124005 82.221642 80.640456L812.242784 791.809003z" fill="#262435" p-id="5137"></path><path d="M655.09728 762.252999l-5.351704 5.230075c-8.392446 8.149186-22.014966 7.905927-30.042523-0.608148l-254.205963-264.057964c-8.149186-8.392446-7.905927-22.014966 0.608148-30.042523l5.351704-5.230075c8.392446-8.149186 22.014966-7.905927 30.042523 0.608148l254.205963 264.057964C663.732985 740.602922 663.489726 754.103813 655.09728 762.252999z" fill="#262435" p-id="5138"></path><path d="M364.767312 762.982777l-5.230075-5.351704c-8.149186-8.392446-7.905927-22.014966 0.608148-30.042523l264.057964-254.205963c8.392446-8.149186 22.014966-7.905927 30.042523 0.608148l5.230075 5.351704c8.149186 8.392446 7.905927 22.014966-0.608148 30.042523l-264.057964 254.205963C386.417389 771.618482 372.916498 771.375223 364.767312 762.982777z" fill="#262435" p-id="5139"></path></svg>
