<svg class="icon" style="width: 1em;height: 1em;vertical-align: middle;fill: currentColor;overflow: hidden;" viewBox="0 0 1024 1024" version="1.1" xmlns="http://www.w3.org/2000/svg" p-id="3471"><path d="M529.271467 940.373333H133.12c-36.4544 0-66.082133-30.856533-66.082133-68.744533V138.990933c0-37.888 29.627733-68.676267 66.082133-68.676266h704.7168c36.4544 0 66.013867 30.788267 66.013867 68.676266v372.053334c0 19.2512 15.018667 34.816 33.518933 34.816a34.133333 34.133333 0 0 0 33.450667-34.816v-372.053334c0-76.1856-59.665067-138.24-132.983467-138.24H133.051733C59.665067 0.750933 0 62.805333 0 138.990933V871.765333c0 76.253867 59.665067 138.308267 133.051733 138.308267h396.219734a34.133333 34.133333 0 0 0 33.450666-34.816 34.133333 34.133333 0 0 0-33.450666-34.816z" fill="#5F6269" p-id="3472"></path><path d="M751.138133 227.805867a34.133333 34.133333 0 0 0-33.450666-34.747734h-477.184a34.133333 34.133333 0 0 0-33.450667 34.816 34.133333 34.133333 0 0 0 33.450667 34.816h477.184a34.133333 34.133333 0 0 0 33.450666-34.816zM653.994667 411.511467a34.133333 34.133333 0 0 0-33.450667-34.816H240.571733a34.133333 34.133333 0 0 0-33.450666 34.816 34.133333 34.133333 0 0 0 33.450666 34.816H620.544a34.133333 34.133333 0 0 0 33.450667-34.816zM240.571733 572.962133a34.133333 34.133333 0 0 0-33.450666 34.816 34.133333 34.133333 0 0 0 33.450666 34.816h250.4704a33.928533 33.928533 0 0 0 33.450667-34.816 34.133333 34.133333 0 0 0-33.450667-34.816h-250.538666z m420.864 322.218667c-25.668267-25.668267-18.500267-18.158933-44.2368-43.8272-14.609067-14.7456-23.620267-29.9008-53.0432-29.832533-3.003733 2.321067-7.850667 1.570133-11.4688 3.4816-7.9872 4.3008-22.801067 18.295467-18.432 34.542933 1.774933 6.7584 1.501867 8.874667 0.8192 9.557333a45.192533 45.192533 0 0 1 4.232534 3.822934l70.314666 71.202133 21.845334 22.1184c3.4816 3.549867 7.031467 7.918933 10.376533 10.513067l50.176-50.107734c-0.477867-0.2048-24.029867-24.849067-30.651733-31.470933h0.068266z" fill="#5F6269" p-id="3473"></path><path d="M1018.4704 656.861867c-9.216-13.243733-34.269867-20.0704-50.722133-8.192-43.349333 44.373333-275.387733 277.640533-275.592534 277.9136l84.3776-84.309334-23.074133 23.3472c-26.487467 27.170133-54.272 53.111467-80.759467 80.349867l-30.788266 30.856533s22.869333 25.122133 26.0096 28.330667c16.861867 17.271467 19.387733 24.029867 36.0448 12.151467l31.061333-32.699734 69.154133-68.8128 21.845334-22.254933c3.208533-3.140267 5.393067-6.826667 9.216-9.284267 1.024-1.2288-0.136533-0.136533 1.160533-1.160533l50.653867-50.107733c-1.2288-1.024-0.068267 0.068267-1.024-1.160534l132.437333-132.983466c7.304533-10.513067 7.304533-31.402667 0-41.984z m-478.276267 217.088c-12.970667-15.5648-4.232533 5.870933 0 0z" fill="#5F6269" p-id="3474"></path></svg>
