<svg xmlns="http://www.w3.org/2000/svg" width="256" height="256">
  <path d="M671.341195 309.574255c77.060963 16.578853 139.692185 66.827104 139.9992 166.197881 0.204677 65.087348-27.938437 120.452528-65.599041 150.23306 5.935639-16.988207 10.643214-39.40036 10.23386-62.73356-2.558465-139.28283-129.970018-207.13332-243.463522-239.165301 60.993804-29.064162 152.484509-5.8333 195.364381 23.3332C699.996002 330.451329 687.101339 318.580052 671.341195 309.574255zM440.874675 652.203878c42.572856 31.929642 212.352588 68.56686 259.530682 10.23386 11.461923-14.122726 12.792325-44.721967 5.8333-67.031781C657.013792 437.59984 295.451529 411.401159 57.411953 464.105537c60.686788-77.879672 346.620828-200.071957 592.028783-32.031981 58.128323 39.809714 114.209874 128.844293 81.6662 217.264841 51.169298-31.520288 81.6662-90.160304 112.265441-151.665801 34.181091-68.56686 76.242255-60.175095 116.666-56.90026-49.838897 44.210274-65.087348 101.622227-97.73336 139.9992-37.967619 44.619628-83.712972 78.084349-142.864681 99.1661-3.377174 27.324405-35.71617 98.142714-89.341595 105.613432-31.724965 4.40056-75.321207-10.540875-78.391365-38.479312 68.771537 28.859484 109.911653-26.198681 131.198081-51.06696 0.307016-1.228063 1.43274-1.43274 1.43274-2.967819-44.824305 27.426744-163.741755 52.090346-220.130322 18.93264C446.605637 701.63342 432.073556 681.677394 440.874675 652.203878zM567.774535 633.271237c-59.254048 2.046772-145.8325-28.347791-172.031181-71.432341-14.634419-24.04957-5.014591-49.429542 16.06716-65.599041C445.172896 560.508495 489.280832 614.031581 567.774535 633.271237z" p-id="5317"></path>
</svg>