<svg xmlns="http://www.w3.org/2000/svg" width="256" height="256"><path fill-opacity=".016" d="M0 128.004v128.004l128.25-.254 128.25-.254.254-127.75L257.008 0H0v128.004m.485.496c0 70.4.119 99.053.265 63.672.146-35.38.146-92.98 0-128C.604 29.153.485 58.1.485 128.5" fill="#1976D2" fill-rule="evenodd"/><path fill-opacity=".227" d="M138.5 60.96c-4.57.998-9.5 2.779-9.5 3.433 0 .244 3.713 1.654 8.25 3.134 11.858 3.868 27.149 11.574 35.25 17.765 13.716 10.482 21.59 23.1 24.28 38.91 1.453 8.544 1.457 10.103.035 17.343-.86 4.375-1.347 8.18-1.084 8.455.969 1.011 9.234-9.487 12.178-15.466 6.666-13.541 7.996-33.128 3.115-45.878-5.124-13.382-18.656-24.397-34.733-28.27-2.522-.607-2.329-.261 2.002 3.594 2.637 2.347 4.619 4.442 4.404 4.656-.214.215-2.897-.719-5.963-2.075-11.559-5.112-28.862-7.646-38.234-5.601M64 73.015c-18.248 3.221-38.4 10.831-51 19.258-4.773 3.193-13 10.678-13 11.829 0 .377 1.912.251 4.25-.28 21.084-4.792 65.637-7.241 90.25-4.962 36.949 3.422 63.27 12.33 78.266 26.489 13.372 12.625 15.762 31.835 4.804 38.608-12.279 7.588-48.729 4.817-65.31-4.966-4.178-2.465-3.916-2.496-4.68.546-1.801 7.178 4.239 15.144 13.587 17.92 11.278 3.349 34.829 1.398 48.285-4 3.273-1.313 6.101-2.237 6.284-2.054.183.183-2.27 2.715-5.451 5.627-7.866 7.199-12.875 9.313-20.673 8.724-3.361-.253-6.899-.8-7.862-1.214-2.854-1.229-2.16 2.693 1.014 5.734 5.951 5.701 18.088 7.428 25.839 3.676 5.859-2.836 11.881-9.709 15.956-18.213 1.893-3.95 3.441-7.7 3.441-8.334 0-.635 3.905-3.028 8.678-5.318 17.019-8.166 30.778-20.685 39.71-36.132 8.301-14.355 10.923-18.283 15.497-23.218 2.43-2.621 4.127-5.056 3.772-5.412-.355-.355-3.911-.671-7.902-.703-5.621-.044-8.325.463-12.006 2.251-6.218 3.021-9.618 7.289-16.431 20.629-3.09 6.05-7.192 13.475-9.116 16.5-3.449 5.425-15.807 19-17.296 19-.422 0-.348-1.46.164-3.243 1.387-4.839 1.102-16.52-.555-22.749-5.376-20.2-22.831-36.996-49.856-47.973-10.435-4.238-21.89-7.413-32.351-8.967-11.16-1.658-34.224-1.186-46.308.947m32.98 43.014c-1.187 1.665-2.578 4.554-3.093 6.418-2.788 10.097 10.77 22.039 31.113 27.405 9.314 2.457 20.47 3.718 19.537 2.209-.36-.584-1.416-1.061-2.346-1.062-2.837-.001-14.379-5.906-19.969-10.216-6.053-4.667-13.499-13.689-18.184-22.033-1.776-3.162-3.605-5.75-4.065-5.75-.46 0-1.807 1.363-2.993 3.029" fill="#1976D2" fill-rule="evenodd"/><path fill-opacity=".242" d="M135.517 62.068c-6.097 1.527-6.054 2.398.218 4.375 17.915 5.647 35.157 15.627 45.406 26.283 11.241 11.688 15.685 21.725 16.503 37.274.346 6.57.054 11.141-.944 14.822l-1.445 5.323 3.429-3.323c5.173-5.014 9.252-11.975 12.057-20.578 3.396-10.417 3.548-26.637.334-35.744-4.999-14.17-17.412-25.249-32.35-28.877-2.679-.65-2.633-.531 1.333 3.435 2.26 2.26 3.89 4.328 3.622 4.595-.267.268-2.217-.394-4.333-1.471-8.227-4.185-17.548-6.364-28.847-6.743-6.05-.203-12.792.08-14.983.629M68.928 72.581C42.25 76.58 13.876 88.733 2.5 101.034l-3 3.243 3.5-.692c52.484-10.389 111.942-7.324 147.842 7.622 22.185 9.235 35.426 25.249 33.911 41.013-.618 6.43-3.068 9.638-10.05 13.156-10.162 5.12-29.571 4.722-49.525-1.016-4.578-1.316-10.072-3.286-12.211-4.377-2.138-1.09-4.13-1.983-4.427-1.983-.297 0-.538 1.912-.536 4.25.005 6.278 2.971 10.386 9.772 13.535 11.253 5.211 34.725 3.94 52.147-2.824l7.424-2.882-4.924 5.062c-9.39 9.655-17.061 12.773-26.458 10.758-2.807-.602-5.358-.839-5.669-.528-1.242 1.242 3.121 5.926 7.198 7.729 13.205 5.842 24.55 2.074 33.325-11.067 2.268-3.396 4.865-8.529 5.772-11.406 1.577-5.001 1.899-5.327 7.335-7.435 7.358-2.853 19.54-10.877 27.002-17.786 6.112-5.659 11.4-12.972 19.712-27.261 2.673-4.595 7.232-11.233 10.132-14.75L256.044 97l-7.772.022c-13.98.039-18.616 3.734-28.866 23.005-3.648 6.86-8.252 14.948-10.23 17.973-3.578 5.473-15.961 18.549-16.785 17.724-.238-.238.084-2.842.716-5.786 2.281-10.636-.51-24.248-7.345-35.828-11.696-19.812-41.937-36.525-75.299-41.615-11.63-1.774-29.368-1.737-41.535.086m28.171 44.02c-2.403 3.055-3.584 8.331-2.675 11.952 1.171 4.665 8.421 11.275 16.978 15.48 8.625 4.238 21.593 7.982 27.508 7.943 3.53-.023 3.495-.063-2.129-2.375-12.725-5.234-24.693-15.985-32.163-28.893-2.135-3.689-4.24-6.708-4.677-6.708-.438 0-1.717 1.171-2.842 2.601" fill="#1976D2" fill-rule="evenodd"/><path fill-opacity=".442" d="M77.45 72.009c-22.702 1.921-46.997 9.713-63.076 20.23C6.136 97.626-1.473 104.336 1.5 103.59c3.076-.772 18.925-3.315 29.5-4.734 12.57-1.687 59.582-1.725 71.5-.058 28.24 3.949 47.852 10.03 61.873 19.183 13.265 8.659 19.848 18.5 20.413 30.519.444 9.428-1.496 12.967-9.321 17-5.355 2.76-6.789 3.028-17.946 3.347-8.36.24-14.849-.163-20.899-1.296-9.046-1.695-25.181-7.032-26.188-8.662-1.074-1.737-2.432.229-2.432 3.522 0 5.072 3.707 9.692 10.5 13.089 5.749 2.875 6.522 2.996 18.5 2.909 13.265-.097 24.754-2.221 34.392-6.359 2.69-1.155 5.079-1.912 5.31-1.682.887.887-10.491 11.484-14.558 13.559-5.352 2.73-12.482 3.626-17.604 2.212-2.16-.597-4.084-.928-4.275-.737-.191.191.795 1.704 2.19 3.362 5.34 6.347 18.156 8.547 26.09 4.479 2.225-1.141 5.967-4.159 8.315-6.707 4.292-4.657 10.138-15.502 10.139-18.811.001-1.236 2.239-2.795 7.359-5.129 10.901-4.967 18.226-9.987 26.974-18.487 7.364-7.153 9.998-10.841 20.659-28.918 2.37-4.02 6.266-9.485 8.657-12.144 4.817-5.358 4.499-6.047-2.787-6.047-12.677 0-18.008 4.231-27.27 21.644-3.761 7.071-8.777 15.796-11.148 19.39C205.31 144.301 194.117 156 192.255 156c-.492 0-.245-3.23.548-7.179 1.28-6.373 1.264-8.082-.145-15.237-4.97-25.222-24.658-43.609-58.998-55.099-17.038-5.701-37.502-8.058-56.21-6.476" fill="#1976D2" fill-rule="evenodd"/></svg>